<?xml version="1.0" encoding="UTF-8"?>
<!DOCTYPE svg PUBLIC "-//W3C//DTD SVG 1.1//EN" "http://www.w3.org/Graphics/SVG/1.1/DTD/svg11.dtd">
<!-- Creator: CorelDRAW 2021 (64-Bit) -->
<svg xmlns="http://www.w3.org/2000/svg" xml:space="preserve" width="67.003mm" height="67.0031mm" version="1.1" style="shape-rendering:geometricPrecision; text-rendering:geometricPrecision; image-rendering:optimizeQuality; fill-rule:evenodd; clip-rule:evenodd"
viewBox="0 0 2781.61 2781.61"
 xmlns:xlink="http://www.w3.org/1999/xlink"
 xmlns:xodm="http://www.corel.com/coreldraw/odm/2003">
 <defs>
  <style type="text/css">
   <![CDATA[
    .fil0 {fill:black}
   ]]>
  </style>
 </defs>
 <g id="Capa_x0020_1">
  <metadata id="CorelCorpID_0Corel-Layer"/>
  <g id="_1886170369536">
   <rect class="fil0" x="747.02" y="423.1" width="1287.58" height="869.25"/>
   <rect class="fil0" x="2134.44" y="425.81" width="217.31" height="217.31"/>
   <rect class="fil0" x="2134.44" y="1075.04" width="217.31" height="217.31"/>
   <rect class="fil0" x="2134.44" y="744" width="217.31" height="217.31"/>
   <rect class="fil0" x="415.61" y="423.1" width="217.31" height="217.31"/>
   <rect class="fil0" x="415.61" y="1072.32" width="217.31" height="217.31"/>
   <rect class="fil0" x="415.61" y="741.29" width="217.31" height="217.31"/>
   <path class="fil0" d="M537.85 2450.21l0 -201.01 -212.43 0 -113.53 0 0 -113.53 0 -843.31 0 -966.93c0,-62.45 51.09,-113.53 113.53,-113.53l2136.21 0c62.44,0 113.53,51.09 113.53,113.53l0 966.93 0 843.31 0 113.53 -113.53 0 -212.43 0 0 201.01 217.86 0 204.95 0c60.28,0 109.59,-49.32 109.59,-109.59l0 -204.95 0 -733.71 0 -1087.4c0,-173 -141.54,-314.55 -314.55,-314.55l-2152.51 0c-173,0 -314.55,141.55 -314.55,314.55l0 1087.4 0 733.71 0 204.95c0,60.28 49.32,109.59 109.59,109.59l204.95 0 223.3 0z"/>
   <path class="fil0" d="M850.24 2356.27l0 -321.67 0 -214.6 223.41 0c0.36,171.86 139.79,311.07 311.73,311.07 171.94,0 311.37,-139.21 311.73,-311.07l231.25 0 0 214.6 0 321.67c-113.8,2.42 -205.61,94.23 -208.03,208.03l-662.05 0c-2.42,-113.8 -94.23,-205.61 -208.03,-208.03zm-217.31 -321.67l0 104.31 0 110.29 0 428.11c0,57.37 46.94,104.31 104.31,104.31l1292.91 0c57.37,0 104.31,-46.94 104.31,-104.31l0 -538.4 -0 -0.16 0 -104.15 217.32 0 0 -429.2 -1936.14 0 0 429.2 217.31 0z"/>
   <ellipse class="fil0" cx="1383.68" cy="2292.51" rx="126.89" ry="81.49"/>
  </g>
 </g>
</svg>
